<mxfile host="app.diagrams.net" modified="2023-05-16T18:22:41.975Z" agent="Mozilla/5.0 (Windows NT 10.0; Win64; x64) AppleWebKit/537.36 (KHTML, like Gecko) Chrome/110.0.0.0 Safari/537.36 Edg/110.0.1587.63" version="21.3.2" etag="-GnzuZ0QztZq64W6_wOL" type="github">
  <diagram name="PÃ¡gina-1" id="72iwt8nv1lAFxt5A45Wy">
    <mxGraphModel>
      <root>
        <mxCell id="0" />
        <mxCell id="1" parent="0" />
      </root>
    </mxGraphModel>
  </diagram>
</mxfile>
